# xmcd
#
# Track frame offsets: 
#        150
#        11370
#        27043
#        41053
#        64575
#        98955
#        112050
#        127408
#        144568
#        165625
#
# Disc length: 2362 seconds
#
# Revision: 3
# Processed by: cddbd v1.5.2PL0 Copyright (c) Steve Scherf et al.
# Submitted via: ExactAudioCopyFreeDBPlugin 1.0
#
DISCID=8809380a
DTITLE=Irma Thomas - Turn My World Around
DYEAR=1993
DGENRE=Soul
TTITLE0=Turn My World Around
TTITLE1=These Four Walls
TTITLE2=You're the Dog (But I Do the Barking Myself)
TTITLE3=Coming from Behind
TTITLE4=Wish Someone Would Care
TTITLE5=In Between Tears
TTITLE6=She'll Never Be Your Wife
TTITLE7=We Won't Be in Your Way Anymore
TTITLE8=I'd Do it All Over You
TTITLE9=What's So Wrong with You Loving Me
EXTD=
EXTT0=
EXTT1=
EXTT2=
EXTT3=
EXTT4=
EXTT5=
EXTT6=
EXTT7=
EXTT8=
EXTT9=
PLAYORDER=
